<svg xmlns="http://www.w3.org/2000/svg" width="32" height="32" viewBox="0 0 16 16" shape-rendering="crispEdges"><title>煤球猫</title><rect x="2" y="1" width="2" height="1" fill="#322e3e"/><rect x="12" y="1" width="2" height="1" fill="#322e3e"/><rect x="2" y="2" width="1" height="1" fill="#322e3e"/><rect x="3" y="2" width="1" height="1" fill="#535064"/><rect x="4" y="2" width="1" height="1" fill="#322e3e"/><rect x="11" y="2" width="1" height="1" fill="#322e3e"/><rect x="12" y="2" width="1" height="1" fill="#535064"/><rect x="13" y="2" width="1" height="1" fill="#322e3e"/><rect x="2" y="3" width="1" height="1" fill="#322e3e"/><rect x="3" y="3" width="1" height="1" fill="#535064"/><rect x="4" y="3" width="1" height="1" fill="#787184"/><rect x="5" y="3" width="6" height="1" fill="#322e3e"/><rect x="11" y="3" width="1" height="1" fill="#787184"/><rect x="12" y="3" width="1" height="1" fill="#535064"/><rect x="13" y="3" width="1" height="1" fill="#322e3e"/><rect x="2" y="4" width="1" height="1" fill="#322e3e"/><rect x="3" y="4" width="1" height="1" fill="#535064"/><rect x="4" y="4" width="2" height="1" fill="#787184"/><rect x="6" y="4" width="4" height="1" fill="#535064"/><rect x="10" y="4" width="2" height="1" fill="#787184"/><rect x="12" y="4" width="1" height="1" fill="#535064"/><rect x="13" y="4" width="1" height="1" fill="#322e3e"/><rect x="2" y="5" width="1" height="1" fill="#322e3e"/><rect x="3" y="5" width="10" height="1" fill="#535064"/><rect x="13" y="5" width="1" height="1" fill="#322e3e"/><rect x="1" y="6" width="1" height="1" fill="#322e3e"/><rect x="2" y="6" width="12" height="1" fill="#535064"/><rect x="14" y="6" width="1" height="1" fill="#322e3e"/><rect x="1" y="7" width="1" height="1" fill="#322e3e"/><rect x="2" y="7" width="2" height="1" fill="#535064"/><rect x="4" y="7" width="2" height="1" fill="#e8c778"/><rect x="6" y="7" width="4" height="1" fill="#535064"/><rect x="10" y="7" width="2" height="1" fill="#e8c778"/><rect x="12" y="7" width="2" height="1" fill="#535064"/><rect x="14" y="7" width="1" height="1" fill="#322e3e"/><rect x="1" y="8" width="1" height="1" fill="#322e3e"/><rect x="2" y="8" width="2" height="1" fill="#535064"/><rect x="4" y="8" width="1" height="1" fill="#e8c778"/><rect x="5" y="8" width="1" height="1" fill="#211f32"/><rect x="6" y="8" width="4" height="1" fill="#535064"/><rect x="10" y="8" width="1" height="1" fill="#211f32"/><rect x="11" y="8" width="1" height="1" fill="#e8c778"/><rect x="12" y="8" width="2" height="1" fill="#535064"/><rect x="14" y="8" width="2" height="1" fill="#322e3e"/><rect x="1" y="9" width="1" height="1" fill="#322e3e"/><rect x="2" y="9" width="1" height="1" fill="#535064"/><rect x="3" y="9" width="1" height="1" fill="#c2879c"/><rect x="4" y="9" width="8" height="1" fill="#535064"/><rect x="12" y="9" width="1" height="1" fill="#c2879c"/><rect x="13" y="9" width="1" height="1" fill="#322e3e"/><rect x="14" y="9" width="1" height="1" fill="#535064"/><rect x="15" y="9" width="1" height="1" fill="#322e3e"/><rect x="2" y="10" width="1" height="1" fill="#322e3e"/><rect x="3" y="10" width="4" height="1" fill="#535064"/><rect x="7" y="10" width="2" height="1" fill="#c2879c"/><rect x="9" y="10" width="4" height="1" fill="#535064"/><rect x="13" y="10" width="1" height="1" fill="#322e3e"/><rect x="14" y="10" width="1" height="1" fill="#535064"/><rect x="15" y="10" width="1" height="1" fill="#322e3e"/><rect x="3" y="11" width="1" height="1" fill="#322e3e"/><rect x="4" y="11" width="3" height="1" fill="#535064"/><rect x="7" y="11" width="2" height="1" fill="#211f32"/><rect x="9" y="11" width="2" height="1" fill="#535064"/><rect x="11" y="11" width="1" height="1" fill="#322e3e"/><rect x="13" y="11" width="2" height="1" fill="#322e3e"/><rect x="4" y="12" width="1" height="1" fill="#322e3e"/><rect x="5" y="12" width="1" height="1" fill="#787184"/><rect x="6" y="12" width="4" height="1" fill="#535064"/><rect x="10" y="12" width="1" height="1" fill="#787184"/><rect x="11" y="12" width="1" height="1" fill="#322e3e"/><rect x="3" y="13" width="1" height="1" fill="#322e3e"/><rect x="4" y="13" width="8" height="1" fill="#535064"/><rect x="12" y="13" width="1" height="1" fill="#322e3e"/><rect x="3" y="14" width="1" height="1" fill="#322e3e"/><rect x="4" y="14" width="1" height="1" fill="#535064"/><rect x="5" y="14" width="1" height="1" fill="#787184"/><rect x="6" y="14" width="1" height="1" fill="#322e3e"/><rect x="7" y="14" width="2" height="1" fill="#535064"/><rect x="9" y="14" width="1" height="1" fill="#322e3e"/><rect x="10" y="14" width="1" height="1" fill="#787184"/><rect x="11" y="14" width="1" height="1" fill="#535064"/><rect x="12" y="14" width="1" height="1" fill="#322e3e"/><rect x="4" y="15" width="2" height="1" fill="#322e3e"/><rect x="7" y="15" width="2" height="1" fill="#322e3e"/><rect x="10" y="15" width="2" height="1" fill="#322e3e"/></svg>
